<svg width="22" height="23" viewBox="0 0 22 23" fill="none" xmlns="http://www.w3.org/2000/svg">
<rect x="0.813843" y="1.18042" width="19.8389" height="20.459" stroke="white"/>
<path d="M7.26013 17.6688H4.65527V8.72754H7.26013V17.6688ZM16.8113 17.6688H14.2064V12.8924C14.2064 11.6478 13.7758 11.0281 12.9222 11.0281C12.2458 11.0281 11.8169 11.375 11.6016 12.0698V17.6688H8.9967C8.9967 17.6688 9.03144 9.62166 8.9967 8.72754H11.0528L11.2117 10.5158H11.2655C11.7995 9.62166 12.6531 9.01545 13.8235 9.01545C14.7135 9.01545 15.4333 9.27027 15.9829 9.91047C16.536 10.5516 16.8113 11.4117 16.8113 12.6197V17.6688Z" fill="white"/>
<path d="M5.95772 7.83338C6.70101 7.83338 7.30357 7.23291 7.30357 6.49219C7.30357 5.75147 6.70101 5.151 5.95772 5.151C5.21443 5.151 4.61188 5.75147 4.61188 6.49219C4.61188 7.23291 5.21443 7.83338 5.95772 7.83338Z" fill="white"/>
</svg>
